<svg fill="#32CD32" xmlns="http://www.w3.org/2000/svg" viewBox="0 0 668 511" width="24px" height="24px">
    <defs>
        <style>.cls-1,.cls-2{stroke:white;stroke-miterlimit:10;}.cls-2{stroke-width:7px;}</style>
    </defs>
    <path class="cls-1"
          d="M14.5,244.5c-11-15,124-236,316-236,211.55,0,350.64,219.1,337,237-11.91,15.63-164-124-334-127C205.24,116.24,28.5,259.5,14.5,244.5Z"/>
    <path d="M339,437c-5.17.24-9.28,5.2-9,9,.35,4.8,7.63,6.55,7,9-.68,2.63-9.78,3.48-11,1-1-2,2.8-6.75,3-7,1.18-1.46,2-1.94,2-3,.05-1.75-2-3.72-4-4-3.71-.53-8.68,4.64-9,10-.29,4.91,3.32,9.85,9,12,1.94,3.82,3.7,9,2,14-2,5.79-7.07,6.68-8,12-.9,5.15,2.55,11.75,7,13,6.79,1.9,17.38-8.27,20-19,2.16-8.88-2.15-13.95,2-19,4-4.9,11.12-3.84,12-8,.28-1.33-.81-3.22-3-7-3.08-5.32-4.67-8-7-8-1.72,0-3.76,1.39-4,3-.43,2.86,5.06,4.32,5,8,0,1.9-1.53,3.84-3,4-2.24.25-5.13-3.56-5-7s3.24-4.3,3-7C347.73,439.92,343.32,436.8,339,437Z"/>
    <line class="cls-2" x1="317.98" y1="416.83" x2="14.5" y2="244.5"/>
    <path class="cls-2" d="M314.23,119.19c.27,6.31,5.27,298.31,5.27,298.31"/>
    <line class="cls-2" x1="92.51" y1="207.91" x2="316.86" y2="411.17"/>
    <line class="cls-2" x1="207.01" y1="149.1" x2="312.99" y2="407.66"/>
    <path class="cls-2" d="M545.17,181.14C545.5,181.5,362,416.83,362,416.83"/>
    <line class="cls-2" x1="665.8" y1="246.72" x2="365.5" y2="416.5"/>
    <polyline class="cls-2" points="352 442 364.5 415.5 443.44 137.73"/>
    <path class="cls-2" d="M325.5,444.5s-6.73-23.7-8-28"/>
</svg>